<svg width="40" height="40" viewBox="0 0 40 40" fill="none" xmlns="http://www.w3.org/2000/svg">
<path d="M13.3334 13.3332H12.0001C10.1332 13.3332 9.19981 13.3332 8.48678 13.6965C7.85956 14.0161 7.34963 14.526 7.03006 15.1532C6.66675 15.8662 6.66675 16.7997 6.66675 18.6665V27.9998C6.66675 29.8667 6.66675 30.8002 7.03006 31.5132C7.34963 32.1403 7.85956 32.6503 8.48678 32.9698C9.19981 33.3332 10.1332 33.3332 12.0001 33.3332H21.3334C23.2002 33.3332 24.1337 33.3332 24.8467 32.9698C25.4739 32.6503 25.9839 32.1403 26.3034 31.5132C26.6667 30.8002 26.6667 29.8667 26.6667 27.9998V26.6665M18.6667 26.6665H28.0001C29.8669 26.6665 30.8004 26.6665 31.5134 26.3032C32.1406 25.9837 32.6506 25.4737 32.9701 24.8465C33.3334 24.1335 33.3334 23.2 33.3334 21.3332V11.9998C33.3334 10.133 33.3334 9.19957 32.9701 8.48654C32.6506 7.85932 32.1406 7.34939 31.5134 7.02982C30.8004 6.6665 29.8669 6.6665 28.0001 6.6665H18.6667C16.7999 6.6665 15.8665 6.6665 15.1534 7.02982C14.5262 7.34939 14.0163 7.85932 13.6967 8.48654C13.3334 9.19957 13.3334 10.133 13.3334 11.9998V21.3332C13.3334 23.2 13.3334 24.1335 13.6967 24.8465C14.0163 25.4737 14.5262 25.9837 15.1534 26.3032C15.8665 26.6665 16.7999 26.6665 18.6667 26.6665Z" stroke="#C98E1D" stroke-width="2" stroke-linecap="round" stroke-linejoin="round"/>
</svg>
