<svg width="97" height="97" viewBox="0 0 97 97" fill="none" xmlns="http://www.w3.org/2000/svg">
<path d="M80.5 48.7002C80.4252 42.6022 78.6092 36.6526 75.266 31.552C71.9228 26.4515 67.192 22.4124 61.6304 19.9105C56.0684 17.4086 49.9076 16.5482 43.8732 17.4304C37.8389 18.3126 32.1823 20.9008 27.5696 24.8902C22.9569 28.8795 19.5802 34.1039 17.8372 39.948C16.0942 45.7922 16.0575 52.0126 17.7314 57.877C19.4054 63.7414 22.7202 69.005 27.2855 73.0486C31.8508 77.0922 37.4765 79.747 43.5 80.7002V58.0202H35.5V48.7002H43.5V41.6202C43.3148 39.9741 43.4932 38.3072 44.0228 36.7375C44.5524 35.1677 45.42 33.7333 46.5644 32.5355C47.7088 31.3377 49.102 30.4056 50.646 29.8052C52.19 29.2047 53.8472 28.9504 55.5 29.0604C57.8992 29.0932 60.2928 29.3072 62.66 29.7004V37.7004H58.66C57.9704 37.6134 57.2696 37.6825 56.6104 37.9026C55.9508 38.1227 55.3492 38.4882 54.85 38.972C54.3508 39.4559 53.9668 40.0457 53.7264 40.6978C53.4856 41.3502 53.3948 42.0482 53.46 42.7402V48.7802H62.34L60.9 58.1002H53.5V80.5002C61.0596 79.3046 67.9404 75.439 72.894 69.6046C77.8476 63.7702 80.546 56.3538 80.5 48.7002Z" fill="#1877F2"/>
</svg>
