<svg width="72" height="72" viewBox="0 0 72 72" fill="none" xmlns="http://www.w3.org/2000/svg">
<g filter="url(#filter0_d_34_327)">
<circle cx="33" cy="33" r="30" fill="#1D2730"/>
<circle cx="33" cy="33" r="29" stroke="#1D2730" stroke-width="2"/>
</g>
<path fill-rule="evenodd" clip-rule="evenodd" d="M20.721 33C20.721 25.8466 26.3851 20.0476 33.3721 20.0476C40.3591 20.0476 46.0233 25.8466 46.0233 33C46.0233 40.1533 40.3591 45.9523 33.3721 45.9523C30.8832 45.9523 28.5665 45.2181 26.6119 43.9502C26.2481 43.7143 25.8024 43.6512 25.3897 43.7772L21.1045 45.0866L22.7179 41.2214C22.9086 40.7645 22.8698 40.2412 22.6139 39.8191C21.4141 37.8396 20.721 35.5049 20.721 33ZM33.3721 17C24.7411 17 17.7442 24.1634 17.7442 33C17.7442 35.8009 18.4484 38.4374 19.686 40.7298L17.1198 46.8773C16.8929 47.4208 16.9935 48.0495 17.3778 48.4905C17.7621 48.9317 18.3609 49.1054 18.914 48.9362L25.6108 46.8902C27.8985 48.2327 30.5497 48.9999 33.3721 48.9999C42.0032 48.9999 49 41.8365 49 33C49 24.1634 42.0032 17 33.3721 17ZM36.7842 36.3255L34.8282 37.7361C33.9121 37.2019 32.8992 36.4561 31.8833 35.416C30.8271 34.3347 30.0441 33.2183 29.4668 32.1943L30.7098 31.1141C31.2433 30.6506 31.3893 29.869 31.0607 29.2366L29.4768 26.189C29.2635 25.7786 28.8789 25.4903 28.4324 25.4061C27.9859 25.3219 27.5262 25.451 27.1841 25.7567L26.7145 26.1763C25.5853 27.1853 24.9174 28.8435 25.4709 30.5224C26.0448 32.2629 27.2695 35.0022 29.7785 37.5709C32.4777 40.3345 35.2196 41.4228 36.823 41.8455C38.1149 42.1859 39.3375 41.7295 40.199 41.0109L41.0793 40.2764C41.4559 39.9624 41.6591 39.4798 41.6236 38.9838C41.5881 38.4878 41.3184 38.0407 40.901 37.7861L38.4031 36.2623C37.8985 35.9546 37.2645 35.9793 36.7842 36.3255Z" fill="#F9F9F9"/>
<defs>
<filter id="filter0_d_34_327" x="0" y="0" width="72" height="72" filterUnits="userSpaceOnUse" color-interpolation-filters="sRGB">
<feFlood flood-opacity="0" result="BackgroundImageFix"/>
<feColorMatrix in="SourceAlpha" type="matrix" values="0 0 0 0 0 0 0 0 0 0 0 0 0 0 0 0 0 0 127 0" result="hardAlpha"/>
<feOffset dx="3" dy="3"/>
<feGaussianBlur stdDeviation="3"/>
<feComposite in2="hardAlpha" operator="out"/>
<feColorMatrix type="matrix" values="0 0 0 0 0 0 0 0 0 0 0 0 0 0 0 0 0 0 0.5 0"/>
<feBlend mode="normal" in2="BackgroundImageFix" result="effect1_dropShadow_34_327"/>
<feBlend mode="normal" in="SourceGraphic" in2="effect1_dropShadow_34_327" result="shape"/>
</filter>
</defs>
</svg>
