<svg width="40" height="40" viewBox="0 0 40 40" fill="none" xmlns="http://www.w3.org/2000/svg">
<path d="M20 28.3335V18.3335" stroke="#C98E1D" stroke-width="2" stroke-linecap="round"/>
<path d="M19.9999 11.6667C20.9204 11.6667 21.6666 12.4129 21.6666 13.3333C21.6666 14.2538 20.9204 15 19.9999 15C19.0794 15 18.3333 14.2538 18.3333 13.3333C18.3333 12.4129 19.0794 11.6667 19.9999 11.6667Z" fill="#C98E1D"/>
<path d="M11.6666 5.5632C14.118 4.14511 16.9643 3.3335 19.9999 3.3335C29.2046 3.3335 36.6666 10.7954 36.6666 20.0002C36.6666 29.2048 29.2046 36.6668 19.9999 36.6668C10.7952 36.6668 3.33325 29.2048 3.33325 20.0002C3.33325 16.9645 4.14487 14.1183 5.56295 11.6668" stroke="#C98E1D" stroke-width="2" stroke-linecap="round"/>
</svg>
