<svg width="32" height="32" viewBox="0 0 32 32" fill="none" xmlns="http://www.w3.org/2000/svg">
<path fill-rule="evenodd" clip-rule="evenodd" d="M9.39142 0.196366C6.78681 0.313886 4.52928 0.950678 2.70638 2.76589C0.877109 4.59063 0.248225 6.8571 0.130413 9.43461C0.057178 11.0434 -0.371061 23.1972 0.870742 26.3846C1.70816 28.5348 3.35749 30.1882 5.52746 31.0283C6.54001 31.4221 7.69588 31.6887 9.39142 31.7666C23.5687 32.4082 28.824 32.0589 31.0402 26.3846C31.4334 25.3745 31.7041 24.2197 31.7789 22.5283C32.4269 8.3147 31.6738 5.23382 29.203 2.76589C27.2431 0.810919 24.9378 -0.519871 9.39142 0.196366ZM9.52193 28.908C7.96968 28.8381 7.12749 28.5795 6.5655 28.3619C5.15175 27.8124 4.08985 26.7549 3.54378 25.3494C2.5981 22.9275 2.91175 11.4248 2.99613 9.56352C3.07891 7.74036 3.44826 6.07412 4.73464 4.78776C6.3267 3.19963 8.38361 2.42131 22.3889 3.05339C24.2166 3.13596 25.8867 3.50456 27.1763 4.78776C28.7683 6.37586 29.558 8.44861 28.9148 22.4002C28.8447 23.9486 28.5852 24.7888 28.3671 25.3494C26.9263 29.0418 23.6116 29.5543 9.52193 28.908ZM22.5434 7.50337C22.5434 8.55471 23.3983 9.40961 24.4539 9.40961C25.5094 9.40961 26.3659 8.55471 26.3659 7.50337C26.3659 6.45205 25.5094 5.59791 24.4539 5.59791C23.3983 5.59791 22.5434 6.45205 22.5434 7.50337ZM7.78024 15.9807C7.78024 20.4846 11.4404 24.1361 15.9555 24.1361C20.4705 24.1361 24.1307 20.4846 24.1307 15.9807C24.1307 11.4768 20.4705 7.82759 15.9555 7.82759C11.4404 7.82759 7.78024 11.4768 7.78024 15.9807ZM10.6491 15.9807C10.6491 13.0586 13.0245 10.6877 15.9555 10.6877C18.8864 10.6877 21.2618 13.0586 21.2618 15.9807C21.2618 18.9044 18.8864 21.276 15.9555 21.276C13.0245 21.276 10.6491 18.9044 10.6491 15.9807Z" fill="#F9F9F9"/>
</svg>
