<svg width="40" height="40" viewBox="0 0 40 40" fill="none" xmlns="http://www.w3.org/2000/svg">
<path d="M5 9.16667C5 23.434 16.566 35 30.8333 35C31.477 35 32.1152 34.9765 32.7472 34.9302C33.4723 34.877 33.8348 34.8505 34.165 34.6605C34.4383 34.5032 34.6975 34.2242 34.8345 33.94C35 33.597 35 33.1968 35 32.3967V27.7012C35 27.0282 35 26.6917 34.8892 26.4033C34.7915 26.1485 34.6325 25.9217 34.4265 25.7427C34.1933 25.54 33.877 25.425 33.2447 25.195L27.9 23.2515C27.1642 22.984 26.7962 22.8502 26.4472 22.8728C26.1393 22.8928 25.8432 22.998 25.5915 23.1763C25.3062 23.3785 25.1048 23.7142 24.702 24.3857L23.3333 26.6667C18.9168 24.6665 15.3365 21.0815 13.3333 16.6667L15.6144 15.298C16.2858 14.8952 16.6214 14.6938 16.8237 14.4084C17.002 14.1568 17.1072 13.8606 17.1272 13.5528C17.1498 13.2038 17.016 12.8359 16.7485 12.1001L14.805 6.75535C14.575 6.12293 14.46 5.80672 14.2574 5.5735C14.0784 5.36748 13.8515 5.20858 13.5967 5.11075C13.3083 5 12.9718 5 12.2989 5H7.60335C6.80313 5 6.40302 5 6.05997 5.16542C5.77583 5.30243 5.4969 5.56168 5.3395 5.83505C5.14947 6.16512 5.12292 6.5277 5.06982 7.25288C5.02355 7.88477 5 8.52297 5 9.16667Z" stroke="#C98E1D" stroke-width="2" stroke-linecap="round" stroke-linejoin="round"/>
</svg>
