<svg width="73" height="50" viewBox="0 0 73 50" fill="none" xmlns="http://www.w3.org/2000/svg">
<path d="M18.75 23.4375H9.54688C9.83727 21.5037 10.5278 19.6516 11.5744 17.9997C12.6209 16.3478 14.0005 14.9324 15.625 13.8437L18.4219 11.9687L16.7031 9.375L13.9062 11.25C11.552 12.8189 9.62142 14.9446 8.28583 17.4386C6.95024 19.9326 6.25095 22.7178 6.25 25.5469V35.9375C6.25 36.7663 6.57924 37.5612 7.16529 38.1472C7.75134 38.7333 8.5462 39.0625 9.375 39.0625H18.75C19.5788 39.0625 20.3737 38.7333 20.9597 38.1472C21.5458 37.5612 21.875 36.7663 21.875 35.9375V26.5625C21.875 25.7337 21.5458 24.9388 20.9597 24.3528C20.3737 23.7667 19.5788 23.4375 18.75 23.4375Z" fill="#C98E1D"/>
<path d="M40.625 23.4375H31.4219C31.7123 21.5037 32.4028 19.6516 33.4494 17.9997C34.4959 16.3478 35.8755 14.9324 37.5 13.8437L40.2969 11.9687L38.5938 9.375L35.7812 11.25C33.427 12.8189 31.4964 14.9446 30.1608 17.4386C28.8252 19.9326 28.1259 22.7178 28.125 25.5469V35.9375C28.125 36.7663 28.4542 37.5612 29.0403 38.1472C29.6263 38.7333 30.4212 39.0625 31.25 39.0625H40.625C41.4538 39.0625 42.2487 38.7333 42.8347 38.1472C43.4208 37.5612 43.75 36.7663 43.75 35.9375V26.5625C43.75 25.7337 43.4208 24.9388 42.8347 24.3528C42.2487 23.7667 41.4538 23.4375 40.625 23.4375Z" fill="#C98E1D"/>
</svg>
