<svg width="141" height="20" viewBox="0 0 141 20" fill="none" xmlns="http://www.w3.org/2000/svg">
<path d="M69.4271 1.0946L66.986 6.04413L61.5243 6.84039C60.5449 6.98244 60.1524 8.18992 60.8626 8.88151L64.814 12.732L63.8795 18.1712C63.7112 19.1544 64.7467 19.8908 65.614 19.431L70.5 16.8628L75.386 19.431C76.2533 19.8871 77.2888 19.1544 77.1206 18.1712L76.186 12.732L80.1374 8.88151C80.8476 8.18992 80.4551 6.98244 79.4757 6.84039L74.014 6.04413L71.5729 1.0946C71.1355 0.212363 69.8682 0.201148 69.4271 1.0946Z" fill="#C98E1D"/>
<path d="M99.4271 1.0946L96.986 6.04413L91.5243 6.84039C90.5449 6.98244 90.1524 8.18992 90.8626 8.88151L94.814 12.732L93.8795 18.1712C93.7112 19.1544 94.7467 19.8908 95.614 19.431L100.5 16.8628L105.386 19.431C106.253 19.8871 107.289 19.1544 107.121 18.1712L106.186 12.732L110.137 8.88151C110.848 8.18992 110.455 6.98244 109.476 6.84039L104.014 6.04413L101.573 1.0946C101.136 0.212363 99.8682 0.201148 99.4271 1.0946Z" fill="#C98E1D"/>
<path d="M129.427 1.0946L126.986 6.04413L121.524 6.84039C120.545 6.98244 120.152 8.18992 120.863 8.88151L124.814 12.732L123.879 18.1712C123.711 19.1544 124.747 19.8908 125.614 19.431L130.5 16.8628L135.386 19.431C136.253 19.8871 137.289 19.1544 137.121 18.1712L136.186 12.732L140.137 8.88151C140.848 8.18992 140.455 6.98244 139.476 6.84039L134.014 6.04413L131.573 1.0946C131.136 0.212363 129.868 0.201148 129.427 1.0946Z" fill="#C98E1D"/>
<path d="M39.4271 1.0946L36.986 6.04413L31.5243 6.84039C30.5449 6.98244 30.1524 8.18992 30.8626 8.88151L34.814 12.732L33.8795 18.1712C33.7112 19.1544 34.7467 19.8908 35.614 19.431L40.5 16.8628L45.386 19.431C46.2533 19.8871 47.2888 19.1544 47.1206 18.1712L46.186 12.732L50.1374 8.88151C50.8476 8.18992 50.4551 6.98244 49.4757 6.84039L44.014 6.04413L41.5729 1.0946C41.1355 0.212363 39.8682 0.201148 39.4271 1.0946Z" fill="#C98E1D"/>
<path d="M9.4271 1.0946L6.98599 6.04413L1.52432 6.84039C0.544878 6.98244 0.152355 8.18992 0.862634 8.88151L4.81403 12.732L3.87945 18.1712C3.71123 19.1544 4.74674 19.8908 5.61403 19.431L10.5 16.8628L15.386 19.431C16.2533 19.8871 17.2888 19.1544 17.1206 18.1712L16.186 12.732L20.1374 8.88151C20.8476 8.18992 20.4551 6.98244 19.4757 6.84039L14.014 6.04413L11.5729 1.0946C11.1355 0.212363 9.86823 0.201148 9.4271 1.0946Z" fill="#C98E1D"/>
</svg>
