<svg width="835" height="28" viewBox="0 0 835 28" fill="none" xmlns="http://www.w3.org/2000/svg">
<path d="M3 3.00019C53.4397 2.97704 59.0529 5.08371 109.503 5.08371C153.791 5.08371 198.469 5.38909 242.461 4.61881C260.636 4.30056 279.154 4.41425 297.448 4.41425C324.922 4.41425 352.08 4.20602 379.499 4.09812C440.248 3.85906 501.302 4.07952 562.075 4.07952C590.954 4.07952 620.393 3.88556 649.138 4.32127C663.216 4.53466 676.552 5.07218 690.379 5.43703C702.951 5.76876 715.584 5.68191 728.254 5.86474C745.085 6.1076 762.502 6.6788 779.017 7.17575C787.318 7.42551 798.691 7.38798 806.225 7.96608C815.883 8.70727 806.409 10.1606 799.852 10.4951C774.624 11.7822 746.305 12.1413 719.806 12.8568C680.177 13.9268 637.956 13.1437 598.16 12.6523C533.061 11.8484 468.616 10.4013 404.344 8.84939C339.672 7.28785 275.65 6.10601 210.385 7.72434C157.978 9.02382 106.043 10.1411 57.3076 13.0986C47.1756 13.7134 36.974 14.1946 26.8068 14.7722C22.5934 15.0116 16.9272 15.2256 13.9191 15.702C11.9073 16.0206 9.70745 16.7095 11.3416 17.1339C12.0441 17.3164 13.7419 17.2986 15.0647 17.3013C27.2533 17.3256 39.4627 17.3013 51.6513 17.3013C197.252 17.3013 342.873 17.2054 488.472 17.3013C567.408 17.3532 647.002 18.407 723.672 20.9461C760.001 22.1492 795.058 24.1277 832 25" stroke="#C98E1D" stroke-width="5" stroke-linecap="round"/>
</svg>
