<svg width="29" height="30" viewBox="0 0 29 30" fill="none" xmlns="http://www.w3.org/2000/svg">
<path fill-rule="evenodd" clip-rule="evenodd" d="M1.02082 0.307041C1.48721 -0.0475593 2.11772 -0.0993693 2.636 0.174321L28.1999 13.6743C28.6922 13.9343 29 14.4444 29 15C29 15.5556 28.6922 16.0658 28.1999 16.3257L2.636 29.8257C2.11772 30.0993 1.48721 30.0476 1.02082 29.693C0.554427 29.3384 0.337239 28.7456 0.464457 28.1747L3.39947 15L0.464457 1.8254C0.337239 1.25437 0.554427 0.661656 1.02082 0.307041ZM6.14619 16.5L4.10677 25.6545L21.442 16.5H6.14619ZM21.442 13.5H6.14619L4.10677 4.34551L21.442 13.5Z" fill="#2D3236"/>
</svg>
